<svg width="86" height="84" viewBox="0 0 86 84" fill="none" xmlns="http://www.w3.org/2000/svg">
<g clip-path="url(#clip0_6_778)">
<path fill-rule="evenodd" clip-rule="evenodd" d="M42.8719 0C19.1648 0 0 19.25 0 43.0649C0 62.1014 12.2796 78.2154 29.3146 83.9186C31.4444 84.3474 32.2246 82.992 32.2246 81.8519C32.2246 80.8535 32.1543 77.4314 32.1543 73.8658C20.2284 76.433 17.745 68.7321 17.745 68.7321C15.8284 63.7411 12.9886 62.4584 12.9886 62.4584C9.08529 59.8203 13.273 59.8203 13.273 59.8203C17.6028 60.1055 19.8748 64.2408 19.8748 64.2408C23.707 70.7998 29.8824 68.9465 32.3667 67.8055C32.7212 65.0248 33.8577 63.0998 35.0643 62.0305C25.5525 61.0321 15.5449 57.3248 15.5449 40.7829C15.5449 36.0771 17.2474 32.2271 19.945 29.2329C19.5194 28.1636 18.0284 23.7423 20.3715 17.8246C20.3715 17.8246 23.9914 16.6836 32.1535 22.2451C35.648 21.3025 39.2518 20.8229 42.8719 20.8189C46.4918 20.8189 50.1819 21.3185 53.5894 22.2451C61.7524 16.6836 65.3723 17.8246 65.3723 17.8246C67.7153 23.7423 66.2235 28.1636 65.7979 29.2329C68.5666 32.2271 70.1988 36.0771 70.1988 40.7829C70.1988 57.3248 60.1912 60.9604 50.6084 62.0305C52.1704 63.385 53.5183 65.9514 53.5183 70.0158C53.5183 75.7908 53.4481 80.4256 53.4481 81.851C53.4481 82.992 54.2291 84.3474 56.3581 83.9195C73.3931 78.2145 85.6727 62.1014 85.6727 43.0649C85.7429 19.25 66.5078 0 42.8719 0Z" fill="black"/>
</g>
<defs>
<clipPath id="clip0_6_778">
<rect width="86" height="84" fill="white"/>
</clipPath>
</defs>
</svg>
