<svg width="81" height="81" viewBox="0 0 81 81" fill="none" xmlns="http://www.w3.org/2000/svg">
<g clip-path="url(#clip0_6_789)">
<path d="M64.125 0H16.875C7.55663 0 0 7.55663 0 16.875V64.125C0 73.4434 7.55663 81 16.875 81H64.125C73.4468 81 81 73.4434 81 64.125V16.875C81 7.55663 73.4468 0 64.125 0ZM27 64.125H16.875V27H27V64.125ZM21.9375 22.7205C18.6772 22.7205 16.0312 20.0542 16.0312 16.767C16.0312 13.4797 18.6772 10.8135 21.9375 10.8135C25.1978 10.8135 27.8438 13.4797 27.8438 16.767C27.8438 20.0542 25.2011 22.7205 21.9375 22.7205ZM67.5 64.125H57.375V45.2115C57.375 33.8445 43.875 34.7051 43.875 45.2115V64.125H33.75V27H43.875V32.9569C48.5865 24.2291 67.5 23.5845 67.5 41.3134V64.125Z" fill="black"/>
</g>
<defs>
<clipPath id="clip0_6_789">
<rect width="81" height="81" fill="white"/>
</clipPath>
</defs>
</svg>
