<svg width="92" height="75" viewBox="0 0 92 75" fill="none" xmlns="http://www.w3.org/2000/svg">
<path d="M92 8.87895C88.6152 10.3863 84.9773 11.4015 81.1593 11.8591C85.0578 9.51728 88.0517 5.8065 89.4585 1.38433C85.813 3.55312 81.7727 5.12972 77.4717 5.97954C74.0332 2.29953 69.1227 0 63.6947 0C51.5085 0 42.5538 11.4054 45.3062 23.2452C29.624 22.4569 15.7167 14.92 6.4055 3.46467C1.4605 11.9745 3.841 23.1068 12.2437 28.7441C9.154 28.6441 6.24067 27.7943 3.69917 26.3754C3.49217 35.1466 9.75967 43.3526 18.837 45.1792C16.1805 45.9021 13.271 46.0713 10.3117 45.5022C12.7113 53.0237 19.6803 58.4957 27.945 58.6495C20.01 64.8905 10.0127 67.6784 0 66.4941C8.35283 71.866 18.2773 75 28.934 75C63.9783 75 83.7775 45.3099 82.5815 18.6808C86.2692 16.0083 89.47 12.6743 92 8.87895Z" fill="black"/>
</svg>
